<svg width="200" height="138" viewBox="0 0 200 138" fill="none" xmlns="http://www.w3.org/2000/svg">
<path d="M6.60724 84H15.0788V65.6648C15.0788 62.2841 17.2266 60.0369 20.0504 60.0369C22.8345 60.0369 24.7038 61.946 24.7038 64.9489V84H32.9169V65.3466C32.9169 62.1847 34.7266 60.0369 37.8089 60.0369C40.5135 60.0369 42.5419 61.7273 42.5419 65.1278V84H50.9936V63.4574C50.9936 56.8352 47.0561 53.0568 41.3686 53.0568C36.8942 53.0568 33.4141 55.3438 32.1612 58.8438H31.843C30.8686 55.304 27.7464 53.0568 23.5504 53.0568C19.4339 53.0568 16.3118 55.2443 15.0391 58.8438H14.6811V53.4545H6.60724V84ZM71.4865 84.5966C80.7536 84.5966 86.5206 78.2528 86.5206 68.8466C86.5206 59.3807 80.7536 53.0568 71.4865 53.0568C62.2195 53.0568 56.4524 59.3807 56.4524 68.8466C56.4524 78.2528 62.2195 84.5966 71.4865 84.5966ZM71.5263 78.0341C67.2507 78.0341 65.0632 74.1165 65.0632 68.7869C65.0632 63.4574 67.2507 59.5199 71.5263 59.5199C75.7223 59.5199 77.9098 63.4574 77.9098 68.7869C77.9098 74.1165 75.7223 78.0341 71.5263 78.0341ZM100.501 66.3409C100.521 62.4034 102.867 60.0966 106.288 60.0966C109.688 60.0966 111.737 62.3239 111.717 66.0625V84H120.188V64.5511C120.188 57.4318 116.012 53.0568 109.648 53.0568C105.114 53.0568 101.833 55.2841 100.461 58.8438H100.103V53.4545H92.0291V84H100.501V66.3409ZM143.112 53.4545H137.365V46.1364H128.893V53.4545H124.717V59.8182H128.893V75.7273C128.854 81.7131 132.93 84.6761 139.075 84.4176C141.263 84.3381 142.814 83.9006 143.669 83.6222L142.337 77.3182C141.919 77.3977 141.024 77.5966 140.229 77.5966C138.538 77.5966 137.365 76.9602 137.365 74.6136V59.8182H143.112V53.4545ZM148.631 84H157.102V66.7188C157.102 62.9602 159.847 60.375 163.585 60.375C164.759 60.375 166.369 60.5739 167.165 60.8324V53.3153C166.409 53.1364 165.355 53.017 164.5 53.017C161.08 53.017 158.276 55.0057 157.162 58.7841H156.844V53.4545H148.631V84ZM179.38 84.5767C183.894 84.5767 186.817 82.608 188.309 79.7642H188.548V84H196.582V63.3977C196.582 56.1193 190.417 53.0568 183.616 53.0568C176.298 53.0568 171.485 56.5568 170.312 62.125L178.147 62.7614C178.724 60.733 180.533 59.2415 183.576 59.2415C186.46 59.2415 188.11 60.6932 188.11 63.1989V63.3182C188.11 65.2869 186.022 65.5455 180.712 66.0625C174.667 66.6193 169.238 68.6477 169.238 75.4688C169.238 81.5142 173.553 84.5767 179.38 84.5767ZM181.806 78.7301C179.201 78.7301 177.332 77.517 177.332 75.1903C177.332 72.804 179.3 71.6307 182.283 71.2131C184.133 70.9545 187.156 70.517 188.17 69.8409V73.0824C188.17 76.2841 185.525 78.7301 181.806 78.7301Z" fill="white"/>
<g style="mix-blend-mode:overlay" filter="url(#filter0_f_1438_4461)">
<circle r="37" transform="matrix(-1 0 0 1 69 69)" fill="#FDA2A9"/>
</g>
<defs>
<filter id="filter0_f_1438_4461" x="0" y="0" width="138" height="138" filterUnits="userSpaceOnUse" color-interpolation-filters="sRGB">
<feFlood flood-opacity="0" result="BackgroundImageFix"/>
<feBlend mode="normal" in="SourceGraphic" in2="BackgroundImageFix" result="shape"/>
<feGaussianBlur stdDeviation="16" result="effect1_foregroundBlur_1438_4461"/>
</filter>
</defs>
</svg>
